# xmcd CD database file
#
# Track frame offsets:
#	150
#	28051
#	42827
#	69954
#	88871
#	103535
#	132085
#	147244
#	178055
#
# Disc length: 2647 seconds
#
# Revision: 1
# Processed by: cddbd v1.4PL0 Copyright (c) Steve Scherf et al.
# Submitted via: CDex 1.51
#
DISCID=770a5509
DTITLE=Viviane Cardinal - I Know a Thing
DYEAR=2002
DGENRE=Jazz
TTITLE0=This Thing Called Groove
TTITLE1=I'm Not Falling
TTITLE2=I Know A Thing
TTITLE3=Waltz of the Bubble Dreams
TTITLE4=Kicks
TTITLE5=Friend
TTITLE6=Questions for Monk
TTITLE7=Summertime
TTITLE8=Of God and Chocolate
EXTD=YEAR: 2002
EXTT0=
EXTT1=
EXTT2=
EXTT3=
EXTT4=
EXTT5=
EXTT6=
EXTT7=
EXTT8=
PLAYORDER=
